# xmcd CD Database Entry
#
# Track frame offsets:
# 182
# 21035
# 42667
# 56805
# 75057
# 99912
# 111280
# 122882
# 131260
# 141032
# 152785
# 162642
# 178265
#
# Disc length: 2556 seconds
#
# Revision: 1
# Processed by: cddbd v1.4b41PL1 Copyright (c) Steve Scherf et al.
# Submitted via: tcd 2.0b
#
DISCID=ab09fa0d
DTITLE=The Rolling Stones - More Hot Rocks [CD2]
DYEAR=1900
DGENRE=
TTITLE0=She's a Rainbow
TTITLE1=2000 Light Years from Home
TTITLE2=Child of the Moon
TTITLE3=No Expectations
TTITLE4=Let It Bleed
TTITLE5=What To Do
TTITLE6=Money
TTITLE7=Come On
TTITLE8=Fortune Teller
TTITLE9=Poison Ivy
TTITLE10=Bye Bye Johnnie
TTITLE11=I Can't Be Satisfied
TTITLE12=Long Long While
EXTD=
EXTT0=
EXTT1=
EXTT2=
EXTT3=
EXTT4=
EXTT5=
EXTT6=
EXTT7=
EXTT8=
EXTT9=
EXTT10=
EXTT11=
EXTT12=
PLAYORDER=
